<?xml version="1.0" encoding="UTF-8" standalone="no"?>
<svg
   width="256"
   height="256"
   viewBox="0 0 256 256"
   fill="currentColor"
   version="1.1"
   id="svg196"
   sodipodi:docname="file-submodule.svg"
   inkscape:version="1.2.2 (b0a8486541, 2022-12-01)"
   inkscape:export-filename="file-submodule.png"
   inkscape:export-xdpi="96"
   inkscape:export-ydpi="96"
   xmlns:inkscape="http://www.inkscape.org/namespaces/inkscape"
   xmlns:sodipodi="http://sodipodi.sourceforge.net/DTD/sodipodi-0.dtd"
   xmlns:xlink="http://www.w3.org/1999/xlink"
   xmlns="http://www.w3.org/2000/svg"
   xmlns:svg="http://www.w3.org/2000/svg">
  <defs
     id="defs200">
    <linearGradient
       inkscape:collect="always"
       id="slight-green-gradient">
      <stop
         style="stop-color:#eeeef0;stop-opacity:1;"
         offset="0"
         id="almost-white" />
      <stop
         style="stop-color:#cddcd3;stop-opacity:1;"
         offset="1"
         id="almost-green" />
    </linearGradient>
    <linearGradient
       inkscape:collect="always"
       xlink:href="#slight-green-gradient"
       id="slight-green-gradient"
       x1="0"
       y1="0"
       x2="256"
       y2="256"
       gradientUnits="userSpaceOnUse" />
  </defs>
  <sodipodi:namedview
     id="namedview198"
     pagecolor="#ffffff"
     bordercolor="#000000"
     borderopacity="0.25"
     inkscape:showpageshadow="2"
     inkscape:pageopacity="0.0"
     inkscape:pagecheckerboard="0"
     inkscape:deskcolor="#d1d1d1"
     showgrid="false"
     inkscape:zoom="2.0652112"
     inkscape:cx="130.49513"
     inkscape:cy="123.71616"
     inkscape:window-width="1503"
     inkscape:window-height="933"
     inkscape:window-x="0"
     inkscape:window-y="32"
     inkscape:window-maximized="1"
     inkscape:current-layer="svg196" />
  <rect
     style="fill:url(#slight-green-gradient);stroke-width:0.1;fill-opacity:1"
     id="sightly-green-background"
     width="256"
     height="256"
     x="0"
     y="0" />
  <path
     id="path5791"
     style="stroke-width:16"
     d="m 56,44.000001 c -21.522198,0 -39.07851,17.009182 -39.96875,38.312499 C 16.00789,82.56194 16,82.806821 16,83.0625 V 164 c 0,22.09117 17.908685,40 40,40 h 112 c 22.09117,0 40,-17.90883 40,-40 v -10.21875 l -17,17 C 188.06939,180.72669 178.89438,188 168,188 H 56 C 42.745146,188 32,177.25437 32,164 v -56 h 49.375 c 4.335003,0 8.549752,-1.17378 12.21875,-3.34375 1.7182,-1.0162 3.314456,-2.25201 4.75,-3.6875 L 115.3125,84.000001 h 7 21.25195 v -16 H 115.3125 L 98.34375,51.03125 C 93.8428,46.53046 87.740107,44.000001 81.375,44.000001 Z m 0,16 h 25.375 c 2.121597,0 4.155933,0.843424 5.65625,2.343748 l 12.9375,12.937501 0.71875,0.718752 -12.343748,12.343749 -1.312496,1.312496 c -1.50029,1.500394 -3.534659,2.343754 -5.656256,2.343754 H 32 v -8 c 0,-13.254855 10.745146,-24 24,-24 z M 103.78125,74.4375 c -0.13904,0.01376 -0.27763,0.02928 -0.41602,0.04688 0.1384,-0.0176 0.27703,-0.03312 0.41602,-0.04688 z m -13.679687,25.72266 c 0.068,0.12672 0.13792,0.25275 0.208992,0.37891 -0.0712,-0.12608 -0.14096,-0.25213 -0.208992,-0.37891 z M 236.96875,124.8125 224,137.78125 V 164 c 0,30.92825 -25.07206,56 -56,56 H 56 c 7.297584,9.71518 18.913466,16 32,16 h 80 c 39.76474,0 72,-32.23495 72,-72 v -24 c 0,-5.39 -1.09838,-10.49487 -3.03125,-15.1875 z M 143.564,68.000001 v 16 h 40.03656 v -16 z" />
  <path
     d="m 173.93979,93.85866 18.33599,18.336 v -76.688 c 0,-4.416 3.584,-8 8,-8 4.416,0 8,3.584 8,8 v 76.704 l 18.336,-18.336 c 1.568,-1.568 3.616,-2.336 5.664,-2.336 2.048,0 4.096,0.8 5.664,2.336 3.12,3.12 3.12,8.192 0,11.312 l -32,31.99999 c -3.12,3.12 -8.176,3.12 -11.296,0 l -31.99999,-31.99999 c -3.12,-3.12 -3.12,-8.192 0,-11.312 3.12,-3.12 8.176,-3.152 11.296,-0.016 z"
     id="path42"
     style="display:inline;stroke-width:1.6;stroke-dasharray:none" />
</svg>
